<svg width="20" height="12" viewBox="0 0 20 12" fill="none" xmlns="http://www.w3.org/2000/svg">
<path d="M5.6407 0.320312C8.75598 0.320312 11.2812 2.86317 11.2812 5.99972C11.2812 9.13627 8.75578 11.6789 5.6407 11.6789C2.52561 11.6789 0 9.13627 0 5.99972C0 2.86317 2.52542 0.320312 5.6407 0.320312ZM14.6485 0.652997C16.2061 0.652997 17.4688 3.04657 17.4688 5.99972H17.469C17.469 8.95211 16.2063 11.3464 14.6487 11.3464C13.091 11.3464 11.8283 8.95211 11.8283 5.99972C11.8283 3.04733 13.0908 0.652997 14.6485 0.652997ZM19.0081 1.2099C19.5558 1.2099 20 3.35434 20 5.99972C20 8.64434 19.556 10.7895 19.0081 10.7895C18.4602 10.7895 18.0163 8.64491 18.0163 5.99972C18.0163 3.35453 18.4604 1.2099 19.0081 1.2099Z" fill="#98ADC5"/>
</svg>
